<svg id="bae0b4dc-e75b-431c-973c-66ba6ffafe39" data-name="Layer 1" xmlns="http://www.w3.org/2000/svg" viewBox="0 0 464.29 452.82"><defs><style>.ee378b70-01ff-4d36-a347-2ff17ed606a0{fill:#fff;fill-rule:evenodd;}</style></defs><path class="ee378b70-01ff-4d36-a347-2ff17ed606a0" d="M265.47,49.58c-128.18,0-232.13,103.93-232.13,232.16C33.34,384.29,99.85,471.3,192.11,502c11.61,2.13,15.84-5,15.84-11.19,0-5.51-.2-20.1-.31-39.48-64.58,14-78.2-31.12-78.2-31.12-10.56-26.81-25.78-33.95-25.78-33.95-21.07-14.41,1.6-14.12,1.6-14.12,23.3,1.65,35.56,23.93,35.56,23.93,20.71,35.47,54.33,25.23,67.56,19.29,2.11-15,8.1-25.23,14.74-31-51.55-5.86-105.75-25.77-105.75-114.73,0-25.34,9-46.07,23.9-62.29-2.39-5.88-10.35-29.48,2.28-61.44,0,0,19.49-6.24,63.83,23.8a219.89,219.89,0,0,1,116.24,0c44.32-30,63.77-23.8,63.77-23.8,12.67,32,4.7,55.56,2.31,61.44,14.88,16.22,23.86,36.95,23.86,62.29,0,89.18-54.27,108.8-106,114.55,8.34,7.17,15.76,21.34,15.76,43,0,31-.28,56.07-.28,63.68,0,6.21,4.18,13.43,16,11.17,92.17-30.76,158.62-117.71,158.62-220.24C497.63,153.51,393.68,49.58,265.47,49.58Z" transform="translate(-33.34 -49.58)"/></svg>