<svg id="bcf28440-0ede-48a7-a697-97a072634d80" data-name="Ebene 1" xmlns="http://www.w3.org/2000/svg" viewBox="0 0 549.37 232.98"><defs><style>.af1e81d0-296d-4e38-9344-2905bcc8256e{fill:#ffffff;}</style></defs><polygon class="af1e81d0-296d-4e38-9344-2905bcc8256e" points="549.37 232.98 28.94 232.98 28.94 229.17 549.37 231.08 549.37 232.98"/><path class="af1e81d0-296d-4e38-9344-2905bcc8256e" d="M300.26,284.13c-1.53-3.66,1.22-6.71-5.19-8.85s-8.85-5.19-11.6-7-1.52-2.44-5.8-2.44-3.66,2.75-7.63,0-4.58-.92-5.49-4.27-1.53-4.28-.61-6.41,1.83-1.53,3.66-4,4.27-.31,3-4.58,0,1.83-2.75-6.41-1.83-5.19-4-9.77-1.53-7.63-5.19-10.38-.61-5.18-6.72-3.35-12.21,2.44-12.82,5.8,0,5.19-3.66,7-2.14.91-5.8,1.83,1.83-2.14-3.66.91-5.5,2.14-5.8,1.22,2.13,3.67-.92-3.05-4.58-7.93-6.71-8.85-8.85-.91-15,0-4.27,1.53-7.94,4-8.24,4.27-9.15,3.36-4.28-.61-5.19,1.52,0,4.58-2.14,5.19a25.08,25.08,0,0,1-5.49.61s-8.24.31-7.48,1.22,1.58,2.44-.05,2.75-4.07,2.14-6.82.92-5.8-2.45-5.8-2.45-1.83,2.75-3,2.45-1.22,0-5.49-4.58-1.83-4-5.5-5.8-3.36-3.05-5.49-3.67-5.19-.61-5.19-1.83,5.19-3.05,0-4.57-3.36-.92-5.19,0-3.36,1.22-4,0A19.49,19.49,0,0,0,110.1,216a20,20,0,0,1-5.19-2.72c-2.44-1.83-4.88-4-5.19-2.75s1.53.92,0,2.75-2.14,2.44-2.14,4.27.31,4,0,5.19,2.14,1.53,0,3.05A22.58,22.58,0,0,1,93,228.28H90.56s-3.66-.31-4,1.22.3,0,0,3.05,0,4.88,1.22,5.49,1.83-.3,2.44,2.14,2.14-.61.61,4.88,2.75,2.75-1.53,5.5-3,1.83-5.8,3.05-4,1.22-6.1,2.14l-5.8,2.44a5,5,0,0,0-2.14-3.05c-1.83-1.22-.91-1.22-3.66-2.75s-7.32-4.27-7.32-2.14a64.74,64.74,0,0,1,0,7.63c-.31,2.14-.62,2.14,0,3.67s-1.23,3.66-3.06,4-8.85,0-9.76.31-4,.61-5.19,1.83-1.22,4,0,5.49,1.52,1.53,3.66,1.53h6.1c2.45,0,1.22-.3,4-.3s3.36-.61,4.28-.61a33.36,33.36,0,0,1,5.18.61c1.23.3,3.36,2.74,2.45,4s.3,2.14-1.53,3.36-4.27,3.66-4.27,4.58-.92,2.44-.92,4.88.61,2.45,0,6.11.31,5.49-.91,5.8-1.53,0-3.06.61a5.18,5.18,0,0,1-3.66.3c-1.22-.3.31.31-1.22-.3s-1.53-.92-4.58-2.14l-3-1.22s-3.05.61-3.36,3.36.61,2.61,1.83,4.51,2.14,2.81,2.75,4.34,1.22,4.88.3,5.49-.91,0-2.44,1.53,1.11,2.93-2.5,2.84-5.74-.52-7.57,0-2.44-.52-5.19,0a18.85,18.85,0,0,1-4.55.17c-.37.33-.88.74-1.55,1.26-5.5,4.28-5.8,1.53-5.5,4.28s-.16,2.44-.08,4-3,3.67-3,3.67-3-1.83-3,.91-2.44,3.67,0,5.19a18.52,18.52,0,0,1,5.49,5.5c.61,1.22.31,1.83,2.75,3.35a44.91,44.91,0,0,1,6.41,4.89c3.66,3.05,6.71,4.27,8.55,4s2.44,2.13,4.27-1.23a27.13,27.13,0,0,0,2.75-7.93c.3-1.53.91-3.36,2.44-2.75s1.52.92,3.66,2.44S53,355,54.24,353.12s3-1.53,6.72-3.36,1.83-.92,7.63-2.75,4.88-.3,8.24-2.44a38.16,38.16,0,0,0,5.49-4.27c1.53-1.22,1.22-1.84,3.67-1.53a87.49,87.49,0,0,1,9.15,2.44s2.44,4.27,1.53,5.8-1.53,1.22-3.66,2.14-3.36.91-4,1.83a4.92,4.92,0,0,0-.92,2.75c0,.91,1.22,1.22,2.14,1.22s2.14-1.22,4.27,1.22,3.67.91,2.14,2.44-2.14.61-2.14,3.05.92,4.58,1.83,4.58,0-1.22,3.67.61,4.27,1.53,5.19,2.44-.31.31,2.13,2.14,1.53,3.66,4.28,2.14,2.44-1.53,3.66-3.36,1.83-.31,1.83-4.27-1.22-5.8-.61-6.72-1.83.92.61-.92a12.13,12.13,0,0,1,3.66-2.13,11.63,11.63,0,0,1,5.5-.31,14.57,14.57,0,0,0,7.32-.3c2.14-.61,2.75-1.83,4.89,0s3.35,13.73,3.66,14.65,1.83.91,2.75,3.05,2.74,3.36,3.35,4.88a40.07,40.07,0,0,1,2.14,5.8c.61,2.45,1.83,4,2.14,7.63s1.43,8.86,1.78,12.52,1.46,5.8,1.06,7.33,1.33,2.44-1.06,5.79-3.31,6.41-4.23,7.94-.3-.92-2.44,4.88-1.83,7-2.44,7.94a8.1,8.1,0,0,1-2.14,1.83h15.57L162,430l3-7.32c1.53-3.36,2.14-7.63,2.75-10.68s-1.83-9.77-1.38-11.3.26-8.85.05-12.82-1.93-7.63,0-10.68,4.08-7,6.21-8.24,6.41-3.05,7.94-4.89a28.39,28.39,0,0,0,4-7.32c.91-2.44-1.53-10.68,0-12.21s5.49-1.22,10.07,0,6.71,2.44,8.55,4.88,2.74,4,4.88,4.28a19.43,19.43,0,0,0,6.1-.31c1.53-.3,3.36-1.22,5.5-.61s2.44,3.66,4.58,5.49,4.27,4.28,7,6.11,3.05,3.66,5.8,4,4.27,1.22,7.32-.92,3-3.66,3-7.32-.61-6.41,1.53-7.63,4.27-2.75,6.72-4,7.63.3,8.24-3.67,2.13-4,0-7.93-3.36-4.58-.92-7.63,4.58-4.39,7.63-6.93,5.19-2.84,4.89-11.39-4-8.24-1.23-10.68,3.67-2.44,7.64-5.8,3.05-5.8,5.49-7,4.27.92,7.63,0S301.79,287.8,300.26,284.13Zm-138,79.67c-.45,1.37-3.66,4-3.66,4s-1.07.76-1.22,0-1.53-1.83-3.1-3.21-1.63-2.59-2.24-3.66a33.66,33.66,0,0,0-2.44-4c-.92-1.13-1.83-2.68-2.6-3.74s-1.37-3.82-2-5.35.91-1.37,1.37-1.67,2.75,0,2.75,0,2.29,1.22,4.43,2.59,1.06.92,2.44,1.53a17.65,17.65,0,0,0,2.59,1.06c1.37.46.92.31,1.93.61s2,.31,1.87,1.38.32,3.66-.14,5.34S162.75,362.43,162.29,363.8Zm15.27-13.43c-.61,2.44-.61,4-1.23,5.19s-1.37,1.52-2.28,3.36-1.38,1.52-2.6,3.05a20,20,0,0,1-5.49,4.12l-.61.91a21.29,21.29,0,0,0-.77-3.51c-.45-1.22,0-2.29,0-4.57s.46-1.38,1.38-3.48.45-1.87,1.83-4.16,1.83-1.22,3.66-2.28,2.75-2.29,4.58-3.67,1.22.31,2.14.63S178.17,347.93,177.56,350.37Zm73.84-70.18h6.34v51.15H251.4Z" transform="translate(-7.99 -210.21)"/><path class="af1e81d0-296d-4e38-9344-2905bcc8256e" d="M284,315.06c.14,8.57,5.62,12.1,12,12.1a22.89,22.89,0,0,0,9.65-1.8l1.08,4.54a28.21,28.21,0,0,1-11.6,2.16c-10.73,0-17.14-7.06-17.14-17.58s6.19-18.8,16.35-18.8c11.38,0,14.41,10,14.41,16.43a22.34,22.34,0,0,1-.22,2.95Zm18.59-4.54c.07-4-1.66-10.3-8.79-10.3-6.42,0-9.23,5.91-9.73,10.3Z" transform="translate(-7.99 -210.21)"/><path class="af1e81d0-296d-4e38-9344-2905bcc8256e" d="M316.54,307.35c0-4.11-.08-7.64-.29-10.88h5.54l.22,6.85h.29c1.58-4.69,5.4-7.64,9.65-7.64a6.57,6.57,0,0,1,1.8.22v6a9.09,9.09,0,0,0-2.16-.22c-4.46,0-7.63,3.39-8.5,8.14a18.19,18.19,0,0,0-.29,2.95v18.59h-6.26Z" transform="translate(-7.99 -210.21)"/><path class="af1e81d0-296d-4e38-9344-2905bcc8256e" d="M340.38,305.91c0-3.6-.07-6.56-.28-9.44h5.62l.36,5.77h.14a12.81,12.81,0,0,1,11.53-6.56c4.83,0,12.32,2.88,12.32,14.84v20.82h-6.34v-20.1c0-5.62-2.09-10.3-8.07-10.3a9,9,0,0,0-8.5,6.48,9.13,9.13,0,0,0-.44,3v21h-6.34Z" transform="translate(-7.99 -210.21)"/><path class="af1e81d0-296d-4e38-9344-2905bcc8256e" d="M380.59,283.43a65.14,65.14,0,0,1,12-1c6.7,0,11,1.23,14.05,4a12.08,12.08,0,0,1,3.82,9.22c0,6.41-4,10.66-9.15,12.39v.22c3.74,1.29,6,4.75,7.13,9.79,1.59,6.78,2.74,11.46,3.75,13.33h-6.49c-.79-1.37-1.87-5.55-3.24-11.6-1.44-6.7-4-9.22-9.72-9.44h-5.91v21h-6.27Zm6.27,22.12h6.41c6.7,0,11-3.67,11-9.22,0-6.27-4.54-9-11.17-9.08a25.62,25.62,0,0,0-6.19.58Z" transform="translate(-7.99 -210.21)"/><path class="af1e81d0-296d-4e38-9344-2905bcc8256e" d="M427.57,316.07l-5.05,15.27H416l16.5-48.56h7.56l16.57,48.56H450l-5.18-15.27Zm15.92-4.9-4.76-14c-1.08-3.17-1.8-6.05-2.52-8.86h-.14c-.72,2.88-1.51,5.84-2.45,8.79l-4.76,14.05Z" transform="translate(-7.99 -210.21)"/><path class="af1e81d0-296d-4e38-9344-2905bcc8256e" d="M468.06,282.78v28.75c0,10.88,4.83,15.49,11.31,15.49,7.21,0,11.82-4.76,11.82-15.49V282.78h6.34V311.1c0,14.91-7.86,21-18.37,21-10,0-17.44-5.69-17.44-20.74V282.78Z" transform="translate(-7.99 -210.21)"/><path class="af1e81d0-296d-4e38-9344-2905bcc8256e" d="M549.33,310c-.36-6.78-.79-14.92-.72-21h-.21c-1.66,5.69-3.68,11.74-6.13,18.45l-8.57,23.55h-4.76l-7.85-23.12c-2.3-6.85-4.25-13.12-5.62-18.88h-.14c-.15,6.05-.51,14.19-.94,21.47l-1.3,20.82h-6l3.39-48.56h8l8.28,23.49c2,6,3.68,11.31,4.9,16.35h.22c1.22-4.89,3-10.23,5.11-16.35l8.65-23.49h8l3,48.56h-6.12Z" transform="translate(-7.99 -210.21)"/><path class="af1e81d0-296d-4e38-9344-2905bcc8256e" d="M176.17,410.85a34.57,34.57,0,0,1,5.63-.44c2.89,0,5,.68,6.36,1.89a6.1,6.1,0,0,1,2,4.75,6.7,6.7,0,0,1-1.75,4.85,9.42,9.42,0,0,1-6.94,2.49,10,10,0,0,1-2.36-.2v9.1h-2.93Zm2.93,10.95a9.75,9.75,0,0,0,2.43.24c3.53,0,5.69-1.72,5.69-4.86s-2.12-4.44-5.36-4.44a12.7,12.7,0,0,0-2.76.23Z" transform="translate(-7.99 -210.21)"/><path class="af1e81d0-296d-4e38-9344-2905bcc8256e" d="M202.15,433.29l-.24-2.06h-.1a6.08,6.08,0,0,1-5,2.43,4.64,4.64,0,0,1-5-4.68c0-3.94,3.5-6.1,9.8-6.07v-.33c0-1.35-.37-3.78-3.7-3.78a8.15,8.15,0,0,0-4.25,1.21l-.67-1.95a10.05,10.05,0,0,1,5.35-1.45c5,0,6.2,3.4,6.2,6.67v6.1a23.15,23.15,0,0,0,.27,3.91Zm-.44-8.32c-3.24-.07-6.91.5-6.91,3.67a2.62,2.62,0,0,0,2.8,2.83,4.06,4.06,0,0,0,3.94-2.73,3.11,3.11,0,0,0,.17-.94Z" transform="translate(-7.99 -210.21)"/><path class="af1e81d0-296d-4e38-9344-2905bcc8256e" d="M223,428.84c0,1.69,0,3.17.14,4.45h-2.63l-.17-2.66h-.07a6.13,6.13,0,0,1-5.39,3c-2.56,0-5.62-1.42-5.62-7.14V417h3v9c0,3.1.94,5.19,3.64,5.19a4.28,4.28,0,0,0,3.91-2.7A4.23,4.23,0,0,0,220,427V417h3Z" transform="translate(-7.99 -210.21)"/><path class="af1e81d0-296d-4e38-9344-2905bcc8256e" d="M227.92,409.37h3v23.92h-3Z" transform="translate(-7.99 -210.21)"/><path class="af1e81d0-296d-4e38-9344-2905bcc8256e" d="M235.47,430.26a7.76,7.76,0,0,0,3.91,1.18c2.15,0,3.16-1.08,3.16-2.43s-.84-2.19-3-3c-2.93-1-4.31-2.66-4.31-4.61,0-2.63,2.12-4.79,5.62-4.79a8.11,8.11,0,0,1,4,1l-.74,2.16a6.39,6.39,0,0,0-3.33-.94c-1.75,0-2.73,1-2.73,2.22s1,1.95,3.1,2.76c2.83,1.08,4.28,2.49,4.28,4.92,0,2.86-2.23,4.89-6.1,4.89a9.2,9.2,0,0,1-4.58-1.12Z" transform="translate(-7.99 -210.21)"/><path class="af1e81d0-296d-4e38-9344-2905bcc8256e" d="M250.87,425.67c.06,4,2.62,5.66,5.59,5.66a10.73,10.73,0,0,0,4.51-.84l.51,2.13a13.27,13.27,0,0,1-5.43,1c-5,0-8-3.31-8-8.22s2.89-8.8,7.64-8.8c5.33,0,6.74,4.68,6.74,7.68a11.87,11.87,0,0,1-.1,1.38Zm8.69-2.12c0-1.88-.78-4.82-4.11-4.82-3,0-4.32,2.77-4.55,4.82Z" transform="translate(-7.99 -210.21)"/><path class="af1e81d0-296d-4e38-9344-2905bcc8256e" d="M266.09,421.4c0-1.69,0-3.07-.13-4.42h2.63l.17,2.7h.06a6,6,0,0,1,5.39-3.07c2.26,0,5.76,1.35,5.76,6.94v9.74h-3v-9.4c0-2.63-1-4.82-3.77-4.82a4.22,4.22,0,0,0-4,3,4.41,4.41,0,0,0-.2,1.38v9.81h-3Z" transform="translate(-7.99 -210.21)"/><path class="af1e81d0-296d-4e38-9344-2905bcc8256e" d="M291.67,423.08v2.19h-8.33v-2.19Z" transform="translate(-7.99 -210.21)"/><path class="af1e81d0-296d-4e38-9344-2905bcc8256e" d="M313,432.28a21.16,21.16,0,0,1-7,1.25c-3.44,0-6.27-.88-8.49-3a11.67,11.67,0,0,1-3.17-8.46c0-6.77,4.68-11.72,12.3-11.72a14.09,14.09,0,0,1,5.66,1l-.71,2.39a11.74,11.74,0,0,0-5-1c-5.52,0-9.13,3.44-9.13,9.14s3.47,9.16,8.76,9.16a9.49,9.49,0,0,0,3.91-.61v-6.77h-4.62v-2.36H313Z" transform="translate(-7.99 -210.21)"/><path class="af1e81d0-296d-4e38-9344-2905bcc8256e" d="M318.45,417l3.57,9.64c.37,1.08.78,2.36,1.05,3.33h.06c.31-1,.64-2.22,1.05-3.4l3.23-9.57h3.14l-4.45,11.63c-2.12,5.59-3.57,8.45-5.59,10.2a8,8,0,0,1-3.64,1.92l-.74-2.49a7.8,7.8,0,0,0,2.59-1.45,8.89,8.89,0,0,0,2.49-3.3,2,2,0,0,0,.24-.71,2.76,2.76,0,0,0-.2-.77l-6-15Z" transform="translate(-7.99 -210.21)"/><path class="af1e81d0-296d-4e38-9344-2905bcc8256e" d="M333.24,421.4c0-1.69,0-3.07-.13-4.42h2.59l.14,2.63h.1a5.61,5.61,0,0,1,5.12-3,4.81,4.81,0,0,1,4.61,3.27h.07a6.75,6.75,0,0,1,1.82-2.12,5.59,5.59,0,0,1,3.61-1.15c2.15,0,5.35,1.42,5.35,7.08v9.6h-2.9v-9.23c0-3.14-1.14-5-3.53-5a3.84,3.84,0,0,0-3.51,2.69,5.11,5.11,0,0,0-.23,1.48v10.08h-2.9v-9.77c0-2.6-1.15-4.48-3.4-4.48a4,4,0,0,0-3.67,3,4.09,4.09,0,0,0-.24,1.45v9.84h-2.9Z" transform="translate(-7.99 -210.21)"/><path class="af1e81d0-296d-4e38-9344-2905bcc8256e" d="M361.34,421.4c0-1.69,0-3.07-.13-4.42h2.62l.17,2.7h.07a6,6,0,0,1,5.39-3.07c2.26,0,5.76,1.35,5.76,6.94v9.74h-3v-9.4c0-2.63-1-4.82-3.78-4.82a4.2,4.2,0,0,0-4,3,4.14,4.14,0,0,0-.2,1.38v9.81h-3Z" transform="translate(-7.99 -210.21)"/><path class="af1e81d0-296d-4e38-9344-2905bcc8256e" d="M389.07,433.29l-.24-2.06h-.1a6.07,6.07,0,0,1-5,2.43,4.65,4.65,0,0,1-5-4.68c0-3.94,3.5-6.1,9.8-6.07v-.33c0-1.35-.37-3.78-3.7-3.78a8.15,8.15,0,0,0-4.25,1.21l-.67-1.95a10.09,10.09,0,0,1,5.36-1.45c5,0,6.2,3.4,6.2,6.67v6.1a22.15,22.15,0,0,0,.27,3.91Zm-.44-8.32c-3.23-.07-6.91.5-6.91,3.67a2.63,2.63,0,0,0,2.8,2.83,4.06,4.06,0,0,0,3.94-2.73,3.11,3.11,0,0,0,.17-.94Z" transform="translate(-7.99 -210.21)"/><path class="af1e81d0-296d-4e38-9344-2905bcc8256e" d="M395.88,430.26a7.75,7.75,0,0,0,3.9,1.18c2.16,0,3.17-1.08,3.17-2.43s-.84-2.19-3-3c-2.93-1-4.31-2.66-4.31-4.61,0-2.63,2.12-4.79,5.62-4.79a8.14,8.14,0,0,1,4,1l-.74,2.16a6.39,6.39,0,0,0-3.33-.94c-1.76,0-2.73,1-2.73,2.22s1,1.95,3.1,2.76c2.83,1.08,4.27,2.49,4.27,4.92,0,2.86-2.22,4.89-6.09,4.89a9.26,9.26,0,0,1-4.59-1.12Z" transform="translate(-7.99 -210.21)"/><path class="af1e81d0-296d-4e38-9344-2905bcc8256e" d="M412.92,412.4a1.74,1.74,0,0,1-1.88,1.82,1.76,1.76,0,0,1-1.79-1.82,1.81,1.81,0,0,1,1.85-1.85A1.76,1.76,0,0,1,412.92,412.4Zm-3.3,20.89V417h3v16.31Z" transform="translate(-7.99 -210.21)"/><path class="af1e81d0-296d-4e38-9344-2905bcc8256e" d="M431.15,428.84c0,1.69,0,3.17.14,4.45h-2.63l-.17-2.66h-.07a6.13,6.13,0,0,1-5.39,3c-2.56,0-5.63-1.42-5.63-7.14V417h3v9c0,3.1.94,5.19,3.64,5.19a4.28,4.28,0,0,0,3.91-2.7,4.46,4.46,0,0,0,.27-1.51V417h3Z" transform="translate(-7.99 -210.21)"/><path class="af1e81d0-296d-4e38-9344-2905bcc8256e" d="M436.07,421.4c0-1.69,0-3.07-.13-4.42h2.59l.13,2.63h.11a5.6,5.6,0,0,1,5.12-3,4.82,4.82,0,0,1,4.61,3.27h.07a6.51,6.51,0,0,1,1.82-2.12,5.56,5.56,0,0,1,3.6-1.15c2.16,0,5.36,1.42,5.36,7.08v9.6h-2.9v-9.23c0-3.14-1.14-5-3.53-5a3.84,3.84,0,0,0-3.51,2.69,5.11,5.11,0,0,0-.23,1.48v10.08h-2.9v-9.77c0-2.6-1.15-4.48-3.4-4.48a4.05,4.05,0,0,0-3.68,3,4.32,4.32,0,0,0-.23,1.45v9.84h-2.9Z" transform="translate(-7.99 -210.21)"/><path class="af1e81d0-296d-4e38-9344-2905bcc8256e" d="M471,423.08v2.19h-8.32v-2.19Z" transform="translate(-7.99 -210.21)"/><path class="af1e81d0-296d-4e38-9344-2905bcc8256e" d="M474.61,410.88a29.32,29.32,0,0,1,5.36-.47c2.93,0,4.82.51,6.23,1.65a4.78,4.78,0,0,1,1.89,4,5.4,5.4,0,0,1-3.84,5v.07a5.84,5.84,0,0,1,4.68,5.69,6.11,6.11,0,0,1-1.92,4.55c-1.58,1.45-4.14,2.12-7.85,2.12a33.44,33.44,0,0,1-4.55-.27Zm2.93,9.3h2.67c3.1,0,4.92-1.61,4.92-3.8,0-2.67-2-3.71-5-3.71a12.82,12.82,0,0,0-2.6.2Zm0,10.89a16,16,0,0,0,2.46.13c3,0,5.83-1.11,5.83-4.41,0-3.1-2.66-4.38-5.86-4.38h-2.43Z" transform="translate(-7.99 -210.21)"/><path class="af1e81d0-296d-4e38-9344-2905bcc8256e" d="M494.56,425.67c.07,4,2.63,5.66,5.59,5.66a10.78,10.78,0,0,0,4.52-.84l.5,2.13a13.21,13.21,0,0,1-5.42,1c-5,0-8-3.31-8-8.22s2.9-8.8,7.65-8.8c5.32,0,6.74,4.68,6.74,7.68a9.64,9.64,0,0,1-.11,1.38Zm8.69-2.12c0-1.88-.77-4.82-4.11-4.82-3,0-4.31,2.77-4.55,4.82Z" transform="translate(-7.99 -210.21)"/><path class="af1e81d0-296d-4e38-9344-2905bcc8256e" d="M509.79,422.07c0-1.92,0-3.57-.14-5.09h2.6l.1,3.2h.13a4.89,4.89,0,0,1,4.52-3.57,3.52,3.52,0,0,1,.84.1v2.8a4.31,4.31,0,0,0-1-.1c-2.09,0-3.57,1.58-4,3.8a9.4,9.4,0,0,0-.13,1.39v8.69h-2.93Z" transform="translate(-7.99 -210.21)"/><path class="af1e81d0-296d-4e38-9344-2905bcc8256e" d="M520.94,409.37h3v23.92h-3Z" transform="translate(-7.99 -210.21)"/><path class="af1e81d0-296d-4e38-9344-2905bcc8256e" d="M532.19,412.4a1.74,1.74,0,0,1-1.88,1.82,1.76,1.76,0,0,1-1.79-1.82,1.8,1.8,0,0,1,1.85-1.85A1.76,1.76,0,0,1,532.19,412.4Zm-3.3,20.89V417h3v16.31Z" transform="translate(-7.99 -210.21)"/><path class="af1e81d0-296d-4e38-9344-2905bcc8256e" d="M536.78,421.4c0-1.69,0-3.07-.14-4.42h2.63l.17,2.7h.06a6,6,0,0,1,5.39-3.07c2.26,0,5.77,1.35,5.77,6.94v9.74h-3v-9.4c0-2.63-1-4.82-3.77-4.82a4.22,4.22,0,0,0-4,3,4.41,4.41,0,0,0-.2,1.38v9.81h-3Z" transform="translate(-7.99 -210.21)"/></svg>