<svg id="fd964379-ee73-4494-9e28-dcdc7ef43dac" data-name="Ebene 1" xmlns="http://www.w3.org/2000/svg" viewBox="0 0 549.37 232.98"><defs><style>.a0604fb1-99b6-42b8-b7be-cce3f34275ed{fill:#231e1b;}.a46d7782-99fe-4089-90c6-630074478960{fill:none;}</style></defs><path class="a0604fb1-99b6-42b8-b7be-cce3f34275ed" d="M300.26,284.13c-1.53-3.66,1.22-6.71-5.19-8.85s-8.85-5.19-11.6-7-1.52-2.44-5.8-2.44-3.66,2.75-7.63,0-4.58-.92-5.49-4.27-1.53-4.28-.61-6.41,1.83-1.53,3.66-4,4.27-.31,3-4.58,0,1.83-2.75-6.41-1.83-5.19-4-9.77-1.53-7.63-5.19-10.38-.61-5.18-6.72-3.35-12.21,2.44-12.82,5.8,0,5.19-3.66,7-2.14.91-5.8,1.83,1.83-2.14-3.66.91-5.5,2.14-5.8,1.22,2.13,3.67-.92-3.05-4.58-7.93-6.71-8.85-8.85-.91-15,0-4.27,1.53-7.94,4-8.24,4.27-9.15,3.36-4.28-.61-5.19,1.52,0,4.58-2.14,5.19a25.08,25.08,0,0,1-5.49.61s-8.24.31-7.48,1.22,1.58,2.44-.05,2.75-4.07,2.14-6.82.92-5.8-2.45-5.8-2.45-1.83,2.75-3,2.45-1.22,0-5.49-4.58-1.83-4-5.5-5.8-3.36-3.05-5.49-3.67-5.19-.61-5.19-1.83,5.19-3.05,0-4.57-3.36-.92-5.19,0-3.36,1.22-4,0A19.49,19.49,0,0,0,110.1,216a20,20,0,0,1-5.19-2.72c-2.44-1.83-4.88-4-5.19-2.75s1.53.92,0,2.75-2.14,2.44-2.14,4.27.31,4,0,5.19,2.14,1.53,0,3.05A22.58,22.58,0,0,1,93,228.28H90.56s-3.66-.31-4,1.22.3,0,0,3.05,0,4.88,1.22,5.49,1.83-.3,2.44,2.14,2.14-.61.61,4.88,2.75,2.75-1.53,5.5-3,1.83-5.8,3.05-4,1.22-6.1,2.14l-5.8,2.44a5,5,0,0,0-2.14-3.05c-1.83-1.22-.91-1.22-3.66-2.75s-7.32-4.27-7.32-2.14a64.74,64.74,0,0,1,0,7.63c-.31,2.14-.62,2.14,0,3.67s-1.23,3.66-3.06,4-8.85,0-9.76.31-4,.61-5.19,1.83-1.22,4,0,5.49,1.52,1.53,3.66,1.53h6.1c2.45,0,1.22-.3,4-.3s3.36-.61,4.28-.61a33.36,33.36,0,0,1,5.18.61c1.23.3,3.36,2.74,2.45,4s.3,2.14-1.53,3.36-4.27,3.66-4.27,4.58-.92,2.44-.92,4.88.61,2.45,0,6.11.31,5.49-.91,5.8-1.53,0-3.06.61a5.18,5.18,0,0,1-3.66.3c-1.22-.3.31.31-1.22-.3s-1.53-.92-4.58-2.14l-3-1.22s-3.05.61-3.36,3.36.61,2.61,1.83,4.51,2.14,2.81,2.75,4.34,1.22,4.88.3,5.49-.91,0-2.44,1.53,1.11,2.93-2.5,2.84-5.74-.52-7.57,0-2.44-.52-5.19,0a18.85,18.85,0,0,1-4.55.17c-.37.33-.88.74-1.55,1.26-5.5,4.28-5.8,1.53-5.5,4.28s-.16,2.44-.08,4-3,3.67-3,3.67-3-1.83-3,.91-2.44,3.67,0,5.19a18.52,18.52,0,0,1,5.49,5.5c.61,1.22.31,1.83,2.75,3.35a44.91,44.91,0,0,1,6.41,4.89c3.66,3.05,6.71,4.27,8.55,4s2.44,2.13,4.27-1.23a27.13,27.13,0,0,0,2.75-7.93c.3-1.53.91-3.36,2.44-2.75s1.52.92,3.66,2.44S53,355,54.24,353.12s3-1.53,6.72-3.36,1.83-.92,7.63-2.75,4.88-.3,8.24-2.44a38.16,38.16,0,0,0,5.49-4.27c1.53-1.22,1.22-1.84,3.67-1.53a87.49,87.49,0,0,1,9.15,2.44s2.44,4.27,1.53,5.8-1.53,1.22-3.66,2.14-3.36.91-4,1.83a4.92,4.92,0,0,0-.92,2.75c0,.91,1.22,1.22,2.14,1.22s2.14-1.22,4.27,1.22,3.67.91,2.14,2.44-2.14.61-2.14,3.05.92,4.58,1.83,4.58,0-1.22,3.67.61,4.27,1.53,5.19,2.44-.31.31,2.13,2.14,1.53,3.66,4.28,2.14,2.44-1.53,3.66-3.36,1.83-.31,1.83-4.27-1.22-5.8-.61-6.72-1.83.92.61-.92a12.13,12.13,0,0,1,3.66-2.13,11.63,11.63,0,0,1,5.5-.31,14.57,14.57,0,0,0,7.32-.3c2.14-.61,2.75-1.83,4.89,0s3.35,13.73,3.66,14.65,1.83.91,2.75,3.05,2.74,3.36,3.35,4.88a40.07,40.07,0,0,1,2.14,5.8c.61,2.45,1.83,4,2.14,7.63s1.43,8.86,1.78,12.52,1.46,5.8,1.06,7.33,1.33,2.44-1.06,5.79-3.31,6.41-4.23,7.94-.3-.92-2.44,4.88-1.83,7-2.44,7.94a8.1,8.1,0,0,1-2.14,1.83h15.57L162,430l3-7.32c1.53-3.36,2.14-7.63,2.75-10.68s-1.83-9.77-1.38-11.3.26-8.85.05-12.82-1.93-7.63,0-10.68,4.08-7,6.21-8.24,6.41-3.05,7.94-4.89a28.39,28.39,0,0,0,4-7.32c.91-2.44-1.53-10.68,0-12.21s5.49-1.22,10.07,0,6.71,2.44,8.55,4.88,2.74,4,4.88,4.28a19.43,19.43,0,0,0,6.1-.31c1.53-.3,3.36-1.22,5.5-.61s2.44,3.66,4.58,5.49,4.27,4.28,7,6.11,3.05,3.66,5.8,4,4.27,1.22,7.32-.92,3-3.66,3-7.32-.61-6.41,1.53-7.63,4.27-2.75,6.72-4,7.63.3,8.24-3.67,2.13-4,0-7.93-3.36-4.58-.92-7.63,4.58-4.39,7.63-6.93,5.19-2.84,4.89-11.39-4-8.24-1.23-10.68,3.67-2.44,7.64-5.8,3.05-5.8,5.49-7,4.27.92,7.63,0S301.79,287.8,300.26,284.13Zm-138,79.67c-.45,1.37-3.66,4-3.66,4s-1.07.76-1.22,0-1.53-1.83-3.1-3.21-1.63-2.59-2.24-3.66a33.66,33.66,0,0,0-2.44-4c-.92-1.13-1.83-2.68-2.6-3.74s-1.37-3.82-2-5.35.91-1.37,1.37-1.67,2.75,0,2.75,0,2.29,1.22,4.43,2.59,1.06.92,2.44,1.53a17.65,17.65,0,0,0,2.59,1.06c1.37.46.92.31,1.93.61s2,.31,1.87,1.38.32,3.66-.14,5.34S162.75,362.43,162.29,363.8Zm15.27-13.43c-.61,2.44-.61,4-1.23,5.19s-1.37,1.52-2.28,3.36-1.38,1.52-2.6,3.05a20,20,0,0,1-5.49,4.12l-.61.91a21.29,21.29,0,0,0-.77-3.51c-.45-1.22,0-2.29,0-4.57s.46-1.38,1.38-3.48.45-1.87,1.83-4.16,1.83-1.22,3.66-2.28,2.75-2.29,4.58-3.67,1.22.31,2.14.63S178.17,347.93,177.56,350.37Zm90.28-48.16q-6.25,6-17.68,5.94a49.06,49.06,0,0,1-6-.4q-3.27-.39-7-1.19v22.56q0,7.31,1.6,9.08c1.44,1.68,3.63,2.51,6.56,2.51h3v2.12H215.09v-2.12H218c3.27,0,5.62-1.06,7-3.19q1.14-1.77,1.14-8.4v-50c0-4.88-.52-7.9-1.54-9.08q-2.24-2.52-6.63-2.52h-2.91v-2.11h28.39q10.4,0,16.39,2.14A22.56,22.56,0,0,1,270,274.74a18.59,18.59,0,0,1,4.11,12.05Q274.09,296.27,267.84,302.21Z" transform="translate(-7.99 -210.21)"/><path class="a46d7782-99fe-4089-90c6-630074478960" d="M22.22,322.55c-.93-.07-1.55-.17-1.55-.17S24.9,320.19,22.22,322.55Z" transform="translate(-7.99 -210.21)"/><path class="a46d7782-99fe-4089-90c6-630074478960" d="M162.29,358.61c-.45,1.68.46,3.82,0,5.19s-3.66,4-3.66,4-1.07.76-1.22,0-1.53-1.83-3.1-3.21-1.63-2.59-2.24-3.66a33.66,33.66,0,0,0-2.44-4c-.92-1.13-1.83-2.68-2.6-3.74s-1.37-3.82-2-5.35.91-1.37,1.37-1.67,2.75,0,2.75,0,2.29,1.22,4.43,2.59,1.06.92,2.44,1.53a17.65,17.65,0,0,0,2.59,1.06c1.37.46.92.31,1.93.61s2,.31,1.87,1.38S162.75,356.93,162.29,358.61Z" transform="translate(-7.99 -210.21)"/><path class="a46d7782-99fe-4089-90c6-630074478960" d="M177.56,350.37c-.61,2.44-.61,4-1.23,5.19s-1.37,1.52-2.28,3.36-1.38,1.52-2.6,3.05a20,20,0,0,1-5.49,4.12l-.61.91a21.29,21.29,0,0,0-.77-3.51c-.45-1.22,0-2.29,0-4.57s.46-1.38,1.38-3.48.45-1.87,1.83-4.16,1.83-1.22,3.66-2.28,2.75-2.29,4.58-3.67,1.22.31,2.14.63S178.17,347.93,177.56,350.37Z" transform="translate(-7.99 -210.21)"/><path class="a46d7782-99fe-4089-90c6-630074478960" d="M274.09,286.79q0,9.48-6.25,15.42t-17.68,5.94a49.06,49.06,0,0,1-6-.4q-3.27-.39-7-1.19v22.56q0,7.31,1.6,9.08c1.44,1.68,3.63,2.51,6.56,2.51h3v2.12H215.09v-2.12H218c3.27,0,5.62-1.06,7-3.19q1.14-1.77,1.14-8.4v-50c0-4.88-.52-7.9-1.54-9.08q-2.24-2.52-6.63-2.52h-2.91v-2.11h28.39q10.4,0,16.39,2.14A22.56,22.56,0,0,1,270,274.74,18.59,18.59,0,0,1,274.09,286.79Z" transform="translate(-7.99 -210.21)"/><path class="a46d7782-99fe-4089-90c6-630074478960" d="M162.29,363.8c-.45,1.37-3.66,4-3.66,4s-1.07.76-1.22,0-1.53-1.83-3.1-3.21-1.63-2.59-2.24-3.66a33.66,33.66,0,0,0-2.44-4c-.92-1.13-1.83-2.68-2.6-3.74s-1.37-3.82-2-5.35.91-1.37,1.37-1.67,2.75,0,2.75,0,2.29,1.22,4.43,2.59,1.06.92,2.44,1.53a17.65,17.65,0,0,0,2.59,1.06c1.37.46.92.31,1.93.61s2,.31,1.87,1.38.32,3.66-.14,5.34S162.75,362.43,162.29,363.8Z" transform="translate(-7.99 -210.21)"/><path class="a46d7782-99fe-4089-90c6-630074478960" d="M177.56,350.37c-.61,2.44-.61,4-1.23,5.19s-1.37,1.52-2.28,3.36-1.38,1.52-2.6,3.05a20,20,0,0,1-5.49,4.12l-.61.91a21.29,21.29,0,0,0-.77-3.51c-.45-1.22,0-2.29,0-4.57s.46-1.38,1.38-3.48.45-1.87,1.83-4.16,1.83-1.22,3.66-2.28,2.75-2.29,4.58-3.67,1.22.31,2.14.63S178.17,347.93,177.56,350.37Z" transform="translate(-7.99 -210.21)"/><path class="a46d7782-99fe-4089-90c6-630074478960" d="M270,274.74a22.56,22.56,0,0,0-10.11-7.23q-6-2.14-16.39-2.14H215.09v2.11H218q4.4,0,6.63,2.52c1,1.18,1.54,4.2,1.54,9.08v50q0,6.63-1.14,8.4c-1.41,2.13-3.76,3.19-7,3.19h-2.91v2.12h33.19v-2.12h-3c-2.93,0-5.12-.83-6.56-2.51q-1.61-1.77-1.6-9.08V306.56q3.71.79,7,1.19a49.06,49.06,0,0,0,6,.4q11.43,0,17.68-5.94t6.25-15.42A18.59,18.59,0,0,0,270,274.74Zm-13.22,25.1a13.6,13.6,0,0,1-10.26,4.6,33.66,33.66,0,0,1-4-.28q-2.35-.29-5.37-.86V271.08a33.91,33.91,0,0,1,7.48-1.08,17,17,0,0,1,8.57,2.14,14.22,14.22,0,0,1,5.82,6.45,21.31,21.31,0,0,1,2.06,9.34Q261.07,295.25,256.76,299.84Z" transform="translate(-7.99 -210.21)"/><path class="a0604fb1-99b6-42b8-b7be-cce3f34275ed" d="M261.07,287.93q0,7.32-4.31,11.91a13.6,13.6,0,0,1-10.26,4.6,33.66,33.66,0,0,1-4-.28q-2.35-.29-5.37-.86V271.08a33.91,33.91,0,0,1,7.48-1.08,17,17,0,0,1,8.57,2.14,14.22,14.22,0,0,1,5.82,6.45A21.31,21.31,0,0,1,261.07,287.93Z" transform="translate(-7.99 -210.21)"/><path class="a0604fb1-99b6-42b8-b7be-cce3f34275ed" d="M303.77,335.74q-7.57,5.85-9.51,6.77a14.57,14.57,0,0,1-6.17,1.34,11.05,11.05,0,0,1-8.41-3.49,12.83,12.83,0,0,1-3.3-9.19,11.74,11.74,0,0,1,1.61-6.23q2.2-3.65,7.65-6.87t18.13-7.84v-1.94q0-7.35-2.34-10.1c-1.55-1.82-3.82-2.73-6.79-2.73a7.6,7.6,0,0,0-5.37,1.82,5.51,5.51,0,0,0-2,4.19l.1,3.12a5.37,5.37,0,0,1-1.26,3.81,4.33,4.33,0,0,1-3.3,1.34,4.17,4.17,0,0,1-3.25-1.39,5.5,5.5,0,0,1-1.26-3.82q0-4.62,4.72-8.48t13.27-3.87a23,23,0,0,1,10.74,2.2,10.15,10.15,0,0,1,4.68,5.21q1,2.31,1,9.45v16.71a76.14,76.14,0,0,0,.27,8.62,3.66,3.66,0,0,0,.89,2.12,2.08,2.08,0,0,0,1.42.54,2.91,2.91,0,0,0,1.5-.38,32.39,32.39,0,0,0,4.36-3.92v3q-6,8.06-11.5,8.05a5.22,5.22,0,0,1-4.19-1.82C304.34,340.75,303.81,338.67,303.77,335.74Zm0-3.49V313.5a103.72,103.72,0,0,0-10.47,4.57,17.92,17.92,0,0,0-6.07,4.94,9.54,9.54,0,0,0-1.83,5.64,9.2,9.2,0,0,0,2.31,6.42,7,7,0,0,0,5.32,2.55Q297.11,337.62,303.77,332.25Z" transform="translate(-7.99 -210.21)"/><path class="a0604fb1-99b6-42b8-b7be-cce3f34275ed" d="M365.87,293.63v29.81a74.68,74.68,0,0,0,.4,10.44,4.67,4.67,0,0,0,1.29,2.66,3.06,3.06,0,0,0,2.07.76,9.57,9.57,0,0,0,3.76-.92l.75,1.88-14.72,6.07H357V333.91q-6.35,6.88-9.67,8.65a14.8,14.8,0,0,1-7,1.77,11.19,11.19,0,0,1-7.17-2.39,12.29,12.29,0,0,1-4.21-6.15,37,37,0,0,1-1.19-10.63v-22a10.81,10.81,0,0,0-.75-4.83,4.93,4.93,0,0,0-2.23-2.07,12.87,12.87,0,0,0-5.34-.67v-2h17.24v32.92q0,6.88,2.39,9a8.34,8.34,0,0,0,5.77,2.15,12.13,12.13,0,0,0,5.24-1.45,28.64,28.64,0,0,0,7-5.54V302.87c0-2.8-.51-4.68-1.54-5.67s-3.14-1.51-6.36-1.58v-2Z" transform="translate(-7.99 -210.21)"/><path class="a0604fb1-99b6-42b8-b7be-cce3f34275ed" d="M392.68,266.45v65.26q0,4.62.67,6.12a4.72,4.72,0,0,0,2.07,2.29c.93.51,2.66.77,5.21.77v1.94H376.51v-1.94a10.54,10.54,0,0,0,4.62-.69,4.68,4.68,0,0,0,1.93-2.31q.7-1.62.7-6.18V287a77.21,77.21,0,0,0-.38-10.23,4.47,4.47,0,0,0-1.2-2.6,3.2,3.2,0,0,0-2.13-.7,9.85,9.85,0,0,0-3.54.86l-.91-1.88,14.66-6Z" transform="translate(-7.99 -210.21)"/><path class="a0604fb1-99b6-42b8-b7be-cce3f34275ed" d="M436.14,292.18v16.76h-1.78q-2-7.9-5.23-10.75a11.82,11.82,0,0,0-8.14-2.84,9,9,0,0,0-6.07,2,5.78,5.78,0,0,0-2.31,4.41,8,8,0,0,0,1.72,5.16q1.67,2.19,6.77,4.67l7.84,3.81q10.9,5.33,10.9,14a13.24,13.24,0,0,1-5.07,10.82,17.61,17.61,0,0,1-11.36,4.11,39.29,39.29,0,0,1-10.32-1.61,10.37,10.37,0,0,0-2.9-.54,2.15,2.15,0,0,0-1.93,1.4h-1.77V326h1.77q1.5,7.51,5.75,11.33a13.86,13.86,0,0,0,9.5,3.81,8.52,8.52,0,0,0,6.05-2.17,6.89,6.89,0,0,0,2.33-5.24,8.31,8.31,0,0,0-2.6-6.23q-2.61-2.52-10.39-6.39t-10.21-7a12.11,12.11,0,0,1-2.42-7.74,13.64,13.64,0,0,1,4.17-10.15,14.72,14.72,0,0,1,10.77-4.08,25.41,25.41,0,0,1,7,1.23,16.56,16.56,0,0,0,3.65.81,2.17,2.17,0,0,0,1.35-.38,5.16,5.16,0,0,0,1.12-1.66Z" transform="translate(-7.99 -210.21)"/><path class="a0604fb1-99b6-42b8-b7be-cce3f34275ed" d="M453.44,312.16q-.06,10.95,5.32,17.19t12.62,6.23a13.69,13.69,0,0,0,8.4-2.66q3.59-2.66,6-9.11l1.67,1.08a25.61,25.61,0,0,1-6.56,13.4,17.47,17.47,0,0,1-13.58,6,19.86,19.86,0,0,1-15.18-6.9q-6.3-6.9-6.31-18.56,0-12.62,6.47-19.68a21.12,21.12,0,0,1,16.25-7.07,18.15,18.15,0,0,1,13.59,5.46q5.33,5.44,5.32,14.58Zm0-3.12h22.77a20.87,20.87,0,0,0-1.13-6.66,10.62,10.62,0,0,0-4-4.72,10,10,0,0,0-5.56-1.72,11.05,11.05,0,0,0-8,3.46Q454,302.87,453.44,309Z" transform="translate(-7.99 -210.21)"/><path class="a0604fb1-99b6-42b8-b7be-cce3f34275ed" d="M506.35,302.6q8.65-10.43,16.49-10.42a11.85,11.85,0,0,1,6.93,2,13.6,13.6,0,0,1,4.62,6.64c.79,2.14,1.18,5.44,1.18,9.88v21q0,4.68.75,6.34a4.44,4.44,0,0,0,1.91,2.09,10.84,10.84,0,0,0,4.86.75v1.94H518.76v-1.94h1c2.29,0,3.89-.35,4.81-1a5.52,5.52,0,0,0,1.9-3.09,30.28,30.28,0,0,0,.22-5.05V311.57q0-6.72-1.75-9.75t-5.88-3q-6.39,0-12.73,7v25.94q0,5,.59,6.18a4.92,4.92,0,0,0,2.07,2.28q1.32.72,5.34.72v1.94H490v-1.94h1.08c2.5,0,4.2-.63,5.07-1.9s1.32-3.7,1.32-7.28V313.45a81.23,81.23,0,0,0-.4-10.8,4.61,4.61,0,0,0-1.24-2.63,3.38,3.38,0,0,0-2.23-.7,10.31,10.31,0,0,0-3.6.81l-.8-1.94,14.82-6h2.31Z" transform="translate(-7.99 -210.21)"/><path class="a0604fb1-99b6-42b8-b7be-cce3f34275ed" d="M249,381.63l1,12.69h-1a17.41,17.41,0,0,0-4.06-7.15,12.72,12.72,0,0,0-9.22-3.46q-7.68,0-11.67,6.07A21.78,21.78,0,0,0,220.67,402a24.44,24.44,0,0,0,2.22,10.49,15.59,15.59,0,0,0,5.82,6.95,14,14,0,0,0,7.4,2.21,16.09,16.09,0,0,0,4.29-.57,16.36,16.36,0,0,0,4-1.66V407.8a10.69,10.69,0,0,0-.46-4,3.1,3.1,0,0,0-1.42-1.42,8.13,8.13,0,0,0-3.39-.49v-1.12h15.56v1.12H254a3.33,3.33,0,0,0-3.18,1.54,10.54,10.54,0,0,0-.59,4.33v12.3a30.13,30.13,0,0,1-6.72,2.69,29.2,29.2,0,0,1-7.38.86q-11.65,0-17.69-7.47a19.9,19.9,0,0,1-4.54-12.92,21.59,21.59,0,0,1,2.55-10.16,21.82,21.82,0,0,1,8.3-8.89A22.32,22.32,0,0,1,239.11,382a36.94,36.94,0,0,1,5.09,1.57,8.24,8.24,0,0,0,2.22.62,1.17,1.17,0,0,0,1-.52,3.91,3.91,0,0,0,.49-2Z" transform="translate(-7.99 -210.21)"/><path class="a0604fb1-99b6-42b8-b7be-cce3f34275ed" d="M260.07,397.32h12.09v1.05h-.59a2.83,2.83,0,0,0-1.91.55,1.74,1.74,0,0,0-.64,1.37,7.78,7.78,0,0,0,.93,3.06l6.32,13.09,5.81-14.33a6,6,0,0,0,.48-2.3,1.23,1.23,0,0,0-.2-.76,1.49,1.49,0,0,0-.71-.5,5.49,5.49,0,0,0-1.7-.18v-1.05h8.44v1.05a3.82,3.82,0,0,0-1.61.45,4.69,4.69,0,0,0-1.25,1.27,18.33,18.33,0,0,0-1,2.19L274,428.16a13.36,13.36,0,0,1-4,5.69,7.88,7.88,0,0,1-4.77,1.93,4,4,0,0,1-2.75-1,2.91,2.91,0,0,1-1.08-2.21,2.5,2.5,0,0,1,.78-1.92,3,3,0,0,1,2.14-.72,7.6,7.6,0,0,1,2.55.63,6,6,0,0,0,1.41.42,2.93,2.93,0,0,0,1.86-.88,9.23,9.23,0,0,0,2-3.4l1.84-4.5-9.31-19.57a17.16,17.16,0,0,0-1.36-2.18,6.52,6.52,0,0,0-1.16-1.33,6.4,6.4,0,0,0-2.1-.79Z" transform="translate(-7.99 -210.21)"/><path class="a0604fb1-99b6-42b8-b7be-cce3f34275ed" d="M304.28,402.08q2.84-2.83,3.34-3.26a10.18,10.18,0,0,1,2.75-1.67,7.66,7.66,0,0,1,2.91-.6,6.52,6.52,0,0,1,4.2,1.42,7,7,0,0,1,2.35,4.11,19.12,19.12,0,0,1,4.92-4.46,8.75,8.75,0,0,1,4.14-1.07,6.48,6.48,0,0,1,3.67,1.07,7.06,7.06,0,0,1,2.53,3.47,15.48,15.48,0,0,1,.62,5.15V417.4a10.28,10.28,0,0,0,.37,3.34,2.38,2.38,0,0,0,1.05,1.06,5.29,5.29,0,0,0,2.49.44v1h-12.8v-1h.54a4.52,4.52,0,0,0,2.6-.65,2.49,2.49,0,0,0,.94-1.44,19.37,19.37,0,0,0,.11-2.75V406.24a9.42,9.42,0,0,0-.76-4.47,3.84,3.84,0,0,0-3.54-1.82,6.77,6.77,0,0,0-3,.75,16.45,16.45,0,0,0-3.67,2.79l0,.31,0,1.22V417.4a10.56,10.56,0,0,0,.3,3.31,2.37,2.37,0,0,0,1.12,1.09,6.44,6.44,0,0,0,2.8.44v1H311.13v-1a6,6,0,0,0,3-.51,2.65,2.65,0,0,0,1.12-1.53,15.49,15.49,0,0,0,.14-2.8V406.24a8.49,8.49,0,0,0-.93-4.56,4,4,0,0,0-3.49-1.81,6.22,6.22,0,0,0-3,.82,11.83,11.83,0,0,0-3.62,2.8V417.4a9.8,9.8,0,0,0,.35,3.31,2.5,2.5,0,0,0,1.05,1.15,6.84,6.84,0,0,0,2.82.38v1H295.67v-1a5.78,5.78,0,0,0,2.49-.38,2.5,2.5,0,0,0,1.08-1.22,9.49,9.49,0,0,0,.37-3.24v-9.91a35.79,35.79,0,0,0-.26-5.53,2.22,2.22,0,0,0-.62-1.28,1.75,1.75,0,0,0-1.16-.36,5.34,5.34,0,0,0-1.9.43l-.43-1,7.82-3.18h1.22Z" transform="translate(-7.99 -210.21)"/><path class="a0604fb1-99b6-42b8-b7be-cce3f34275ed" d="M355.28,402.05q4.56-5.49,8.7-5.5a6.24,6.24,0,0,1,3.65,1.07,7.16,7.16,0,0,1,2.44,3.49,16.41,16.41,0,0,1,.62,5.22V417.4a9.45,9.45,0,0,0,.39,3.34,2.34,2.34,0,0,0,1,1.1,5.6,5.6,0,0,0,2.56.4v1H361.82v-1h.54a4.32,4.32,0,0,0,2.54-.55,2.91,2.91,0,0,0,1-1.63,15.58,15.58,0,0,0,.12-2.66V406.78a10.84,10.84,0,0,0-.92-5.14A3.3,3.3,0,0,0,362,400q-3.36,0-6.71,3.68V417.4a10.09,10.09,0,0,0,.31,3.26,2.72,2.72,0,0,0,1.09,1.2,6.9,6.9,0,0,0,2.82.38v1H346.67v-1h.57a3.07,3.07,0,0,0,2.68-1,7.38,7.38,0,0,0,.69-3.84v-9.63a42.23,42.23,0,0,0-.21-5.69,2.47,2.47,0,0,0-.65-1.39,1.77,1.77,0,0,0-1.18-.37,5.34,5.34,0,0,0-1.9.43l-.42-1,7.81-3.18h1.22Z" transform="translate(-7.99 -210.21)"/><path class="a0604fb1-99b6-42b8-b7be-cce3f34275ed" d="M397.45,419.52a42.32,42.32,0,0,1-5,3.57,7.71,7.71,0,0,1-3.26.71,5.82,5.82,0,0,1-4.43-1.84,6.76,6.76,0,0,1-1.74-4.84,6.13,6.13,0,0,1,.85-3.29,11.25,11.25,0,0,1,4-3.62,62.06,62.06,0,0,1,9.56-4.14v-1q0-3.89-1.23-5.32a4.43,4.43,0,0,0-3.58-1.45,4,4,0,0,0-2.84,1,2.9,2.9,0,0,0-1.07,2.2l.06,1.65a2.85,2.85,0,0,1-.67,2,2.28,2.28,0,0,1-1.74.71,2.2,2.2,0,0,1-1.71-.74,2.86,2.86,0,0,1-.67-2,5.81,5.81,0,0,1,2.49-4.48q2.49-2,7-2a12,12,0,0,1,5.66,1.17,5.3,5.3,0,0,1,2.46,2.74,15.55,15.55,0,0,1,.51,5v8.8a38.15,38.15,0,0,0,.15,4.55,1.93,1.93,0,0,0,.46,1.12,1.11,1.11,0,0,0,.75.28,1.49,1.49,0,0,0,.8-.2,17.52,17.52,0,0,0,2.29-2.06v1.58q-3.17,4.25-6.06,4.25a2.76,2.76,0,0,1-2.21-1A5.2,5.2,0,0,1,397.45,419.52Zm0-1.84V407.8a53,53,0,0,0-5.52,2.41,9.47,9.47,0,0,0-3.2,2.6,5.06,5.06,0,0,0-1,3,4.87,4.87,0,0,0,1.21,3.39,3.68,3.68,0,0,0,2.81,1.34Q393.94,420.51,397.45,417.68Z" transform="translate(-7.99 -210.21)"/><path class="a0604fb1-99b6-42b8-b7be-cce3f34275ed" d="M431.29,396.55v8.84h-.93q-1.08-4.15-2.76-5.66a6.23,6.23,0,0,0-4.29-1.5,4.77,4.77,0,0,0-3.2,1,3.06,3.06,0,0,0-1.22,2.33,4.17,4.17,0,0,0,.91,2.71,10,10,0,0,0,3.56,2.47l4.14,2q5.75,2.81,5.75,7.39a7,7,0,0,1-2.68,5.71,9.29,9.29,0,0,1-6,2.16,20.51,20.51,0,0,1-5.44-.85,5.82,5.82,0,0,0-1.52-.28,1.12,1.12,0,0,0-1,.74h-.94V414.4h.94a10.43,10.43,0,0,0,3,6,7.31,7.31,0,0,0,5,2,4.53,4.53,0,0,0,3.19-1.14,3.66,3.66,0,0,0,1.23-2.77,4.38,4.38,0,0,0-1.38-3.28,23.73,23.73,0,0,0-5.48-3.37c-2.73-1.36-4.53-2.59-5.38-3.68a6.39,6.39,0,0,1-1.27-4.08,7.19,7.19,0,0,1,2.19-5.35,7.77,7.77,0,0,1,5.68-2.16,13.16,13.16,0,0,1,3.71.66,8.85,8.85,0,0,0,1.93.42,1.06,1.06,0,0,0,.7-.2,2.67,2.67,0,0,0,.6-.88Z" transform="translate(-7.99 -210.21)"/><path class="a0604fb1-99b6-42b8-b7be-cce3f34275ed" d="M452.08,396.55V417.4a9.74,9.74,0,0,0,.35,3.24,2.49,2.49,0,0,0,1.05,1.2,5.56,5.56,0,0,0,2.54.4v1h-12.6v-1a5.74,5.74,0,0,0,2.54-.37,2.52,2.52,0,0,0,1-1.21,9.34,9.34,0,0,0,.38-3.26v-10a35,35,0,0,0-.26-5.46,2.13,2.13,0,0,0-.62-1.26,1.73,1.73,0,0,0-1.16-.36,5.48,5.48,0,0,0-1.92.43l-.4-1,7.81-3.18ZM449.73,383a2.87,2.87,0,0,1,2.86,2.86,2.81,2.81,0,0,1-.84,2,2.7,2.7,0,0,1-2,.85,2.9,2.9,0,0,1-2.89-2.89,2.73,2.73,0,0,1,.84-2A2.77,2.77,0,0,1,449.73,383Z" transform="translate(-7.99 -210.21)"/><path class="a0604fb1-99b6-42b8-b7be-cce3f34275ed" d="M488,397.32V413a40,40,0,0,0,.21,5.51,2.48,2.48,0,0,0,.68,1.4,1.66,1.66,0,0,0,1.09.39,5,5,0,0,0,2-.48l.4,1-7.76,3.2h-1.27v-5.49a23.52,23.52,0,0,1-5.1,4.56,7.82,7.82,0,0,1-3.71.93,5.9,5.9,0,0,1-3.78-1.26,6.54,6.54,0,0,1-2.23-3.24,19.81,19.81,0,0,1-.62-5.61V402.36a5.61,5.61,0,0,0-.4-2.55,2.64,2.64,0,0,0-1.17-1.09,7,7,0,0,0-2.82-.35v-1.05h9.09v17.36c0,2.42.42,4,1.26,4.76a4.43,4.43,0,0,0,3.05,1.13,6.33,6.33,0,0,0,2.76-.76,15.16,15.16,0,0,0,3.67-2.92v-14.7a4.16,4.16,0,0,0-.81-3c-.54-.52-1.66-.79-3.36-.83v-1.05Z" transform="translate(-7.99 -210.21)"/><path class="a0604fb1-99b6-42b8-b7be-cce3f34275ed" d="M508,402.08q2.83-2.83,3.34-3.26a10.18,10.18,0,0,1,2.75-1.67,7.71,7.71,0,0,1,2.92-.6,6.5,6.5,0,0,1,4.19,1.42,7,7,0,0,1,2.35,4.11,19.13,19.13,0,0,1,4.93-4.46,8.74,8.74,0,0,1,4.13-1.07,6.48,6.48,0,0,1,3.67,1.07,7.07,7.07,0,0,1,2.54,3.47,15.75,15.75,0,0,1,.62,5.15V417.4a10,10,0,0,0,.37,3.34,2.3,2.3,0,0,0,1,1.06,5.34,5.34,0,0,0,2.5.44v1h-12.8v-1h.53a4.53,4.53,0,0,0,2.61-.65,2.48,2.48,0,0,0,.93-1.44,17.28,17.28,0,0,0,.12-2.75V406.24a9.39,9.39,0,0,0-.77-4.47,3.82,3.82,0,0,0-3.54-1.82,6.73,6.73,0,0,0-3,.75,16.22,16.22,0,0,0-3.67,2.79l-.06.31.06,1.22V417.4a10.56,10.56,0,0,0,.3,3.31,2.35,2.35,0,0,0,1.11,1.09,6.49,6.49,0,0,0,2.81.44v1H514.87v-1a6,6,0,0,0,3-.51,2.64,2.64,0,0,0,1.11-1.53,14.17,14.17,0,0,0,.15-2.8V406.24a8.48,8.48,0,0,0-.94-4.56,4,4,0,0,0-3.48-1.81,6.22,6.22,0,0,0-3,.82,11.76,11.76,0,0,0-3.63,2.8V417.4a9.46,9.46,0,0,0,.36,3.31,2.4,2.4,0,0,0,1.05,1.15,6.81,6.81,0,0,0,2.81.38v1H499.4v-1a5.86,5.86,0,0,0,2.5-.38,2.43,2.43,0,0,0,1.07-1.22,9.23,9.23,0,0,0,.37-3.24v-9.91a35.79,35.79,0,0,0-.26-5.53,2.16,2.16,0,0,0-.62-1.28,1.73,1.73,0,0,0-1.16-.36,5.34,5.34,0,0,0-1.9.43l-.42-1,7.81-3.18H508Z" transform="translate(-7.99 -210.21)"/><polygon class="a0604fb1-99b6-42b8-b7be-cce3f34275ed" points="549.37 232.98 28.94 232.98 28.94 229.17 549.37 231.08 549.37 232.98"/></svg>